<?xml version="1.0" encoding="UTF-8"?>
<svg version="1.1" xmlns="http://www.w3.org/2000/svg" width="1024" height="1024">
<path d="M0 0 C337.92 0 675.84 0 1024 0 C1024 337.92 1024 675.84 1024 1024 C686.08 1024 348.16 1024 0 1024 C0 686.08 0 348.16 0 0 Z " fill="#FAFAFA" transform="translate(0,0)"/>
<path d="M0 0 C337.92 0 675.84 0 1024 0 C1024 337.92 1024 675.84 1024 1024 C686.08 1024 348.16 1024 0 1024 C0 686.08 0 348.16 0 0 Z M164.33349609 155.41210938 C149.56742538 172.99514195 140.63325662 195.40932 140.74552441 218.39814281 C140.74231793 219.38867504 140.73911145 220.37920727 140.73580781 221.39975563 C140.72753763 224.70326518 140.73342169 228.00659201 140.73930359 231.31010437 C140.73628154 233.70882992 140.7323918 236.1075545 140.72771102 238.50627738 C140.71957387 243.71366837 140.71762855 248.92102344 140.72121429 254.12841797 C140.72653255 261.87239599 140.72041467 269.61633609 140.71213136 277.36031 C140.69690435 291.99787476 140.695185 306.6354222 140.69765439 321.27299323 C140.69948839 332.57885138 140.69772519 343.88470386 140.69342995 355.19056129 C140.69282754 356.81596562 140.69222634 358.44136995 140.69162634 360.06677428 C140.69071907 362.51624363 140.6898104 364.96571298 140.68889399 367.41518232 C140.68046622 390.18498238 140.6761275 412.95478031 140.68030071 435.72458172 C140.68045709 436.58267672 140.68061346 437.44077172 140.68077458 438.3248696 C140.68158034 442.67383479 140.68242611 447.02279998 140.68328788 451.37176516 C140.68345897 452.23545115 140.68363006 453.09913714 140.68380633 453.98899543 C140.68415299 455.73557824 140.68450152 457.48216105 140.68485192 459.22874385 C140.69020785 486.39917215 140.6822816 513.56956799 140.66381836 540.73999023 C140.64308849 571.28159034 140.6323776 601.82317033 140.63639385 632.36477786 C140.63678918 635.6233052 140.63715073 638.88183254 140.63749123 642.14035988 C140.63758196 642.94266319 140.63767269 643.74496649 140.63776617 644.57158202 C140.63893073 656.66789978 140.63229453 668.7641972 140.62167931 680.86050987 C140.60961363 694.6235018 140.60808402 708.38644901 140.62046947 722.14944162 C140.62708511 729.8446571 140.62549706 737.53976554 140.61188096 745.2349724 C140.60263229 750.99129176 140.60918541 756.74750899 140.62172876 762.50381813 C140.62437536 764.82475453 140.62201036 767.1457035 140.61399289 769.46662756 C140.50987481 801.86832062 148.57800213 827.72804544 171.125 851.5625 C184.62774771 864.74906767 202.57000645 873.35229837 221 877 C221.80751975 877.16791225 222.61503949 877.3358245 223.44702953 877.508825 C234.41445062 879.49914271 245.35084632 879.28158423 256.46070862 879.26069641 C258.74281515 879.26371991 261.02492068 879.26761039 263.30702442 879.27228898 C269.55553003 879.28255237 275.80397816 879.28039135 282.05248845 879.27610838 C288.10669571 879.27389209 294.16088762 879.28105794 300.21508969 879.28786864 C314.12132613 879.30308326 328.02754433 879.30481624 341.93378735 879.30234561 C352.67701564 879.30051038 363.42023796 879.30227739 374.1634655 879.30657005 C375.70893449 879.30717247 377.25440348 879.30777366 378.79987247 879.30837366 C381.12900001 879.30928095 383.45812754 879.31018962 385.78725507 879.31110601 C407.43462226 879.31953205 429.08198721 879.32387374 450.72935581 879.31969929 C451.95266882 879.31946472 451.95266882 879.31946472 453.20069523 879.31922542 C457.33382354 879.31841968 461.46695184 879.31757391 465.60008014 879.31671212 C466.83127146 879.31645549 466.83127146 879.31645549 468.08733532 879.31619367 C469.74718055 879.31584701 471.40702578 879.31549848 473.06687101 879.31514808 C498.88158964 879.30979347 524.69627408 879.31771534 550.51098633 879.33618164 C579.54155777 879.35692425 608.57210804 879.36761989 637.6026873 879.36360615 C640.70173291 879.36321084 643.80077852 879.36284929 646.89982414 879.36250877 C647.66283654 879.36241804 648.42584895 879.36232731 649.21198293 879.36223383 C660.7027329 879.36107055 672.1934614 879.36769572 683.68420601 879.37832069 C696.76338891 879.39040239 709.84252472 879.39189772 722.92170835 879.37953053 C729.58945296 879.37350696 736.25712558 879.37251113 742.92486954 879.38453293 C749.03987017 879.39542957 755.15470262 879.39224346 761.26969551 879.37827124 C763.47085944 879.37563467 765.6720367 879.37795778 767.87318749 879.38600711 C801.82182473 879.50144332 831.15901318 872.55165736 856.1875 848.3125 C870.10175988 834.28823709 878.09293531 816.13621469 882 797 C882.17721704 796.13864089 882.35443408 795.27728178 882.53702134 794.38982087 C883.13980239 789.9763998 883.14143745 785.65345 883.13422108 781.20427227 C883.13657331 780.21812049 883.13892554 779.2319687 883.14134905 778.21593353 C883.14802876 774.89725581 883.14758113 771.57861734 883.14717102 768.25993347 C883.15047029 765.8621117 883.15419599 763.46429048 883.1583125 761.06646997 C883.16728209 755.15831195 883.17155903 749.25016099 883.17383147 743.34199762 C883.17679594 736.26498428 883.18549486 729.18798085 883.19424575 722.11097271 C883.21508241 705.00444113 883.22555919 687.89790782 883.23437535 670.79136651 C883.23858346 662.69603536 883.24380527 654.60070495 883.24905988 646.50537442 C883.26695047 618.78582998 883.2819453 591.06628531 883.28938007 563.34673595 C883.28985483 561.60670557 883.29033072 559.86667519 883.29080774 558.12664481 C883.29104411 557.26375813 883.29128049 556.40087146 883.29152403 555.5118367 C883.29272521 551.14013397 883.29394066 546.76843124 883.29516602 542.39672852 C883.29552624 541.09536891 883.29552624 541.09536891 883.29589374 539.76771922 C883.30378357 511.65006865 883.32720868 483.53246031 883.35972196 455.41482817 C883.39404569 425.67711568 883.41373362 395.93942789 883.41702431 366.20169526 C883.41744184 362.93492749 883.4179214 359.66815974 883.41844749 356.40139198 C883.41857069 355.59704045 883.41869388 354.79268891 883.4188208 353.96396308 C883.42114978 341.0373685 883.43679294 328.11082306 883.45728934 315.18424597 C883.4775791 302.18130065 883.48300979 289.17841417 883.47351871 276.17545595 C883.46831581 268.45822214 883.4741236 260.74118468 883.49605338 253.02397926 C883.51121757 247.24928965 883.50527604 241.47477069 883.49138286 235.70008496 C883.48900837 233.3729214 883.49332197 231.04573875 883.50521151 228.71860435 C883.65543049 197.35976542 874.7194244 171.49906242 852.875 148.4375 C832.932579 128.90882217 805.54737901 120.81215306 778.14936733 120.86857224 C777.20587463 120.8665196 776.26238194 120.86446697 775.29029855 120.86235213 C772.14082024 120.85671485 768.99138612 120.85813532 765.84190369 120.85955811 C763.5561242 120.8569726 761.27034516 120.85395892 758.98456675 120.8505547 C752.71210496 120.84250338 746.43965463 120.84069618 740.16718829 120.83995724 C734.09418898 120.83829392 728.02119599 120.83197368 721.94819982 120.82587883 C705.68603608 120.80984698 689.42387332 120.80391891 673.16170311 120.79913008 C665.46406369 120.79679148 657.76642501 120.79318856 650.06878617 120.7894347 C623.70267513 120.77660218 597.3365645 120.76588236 570.9704504 120.7624321 C569.31651456 120.76221047 567.66257872 120.76198868 566.00864289 120.76176675 C564.35079205 120.76154611 562.69294122 120.76132563 561.03509039 120.7611053 C557.70934737 120.76066276 554.38360435 120.76021564 551.05786133 120.75976562 C550.2332754 120.75965623 549.40868947 120.75954684 548.55911609 120.75943414 C521.8262561 120.75580409 495.09342323 120.73988447 468.36057362 120.71657526 C440.07574465 120.69195805 411.79093117 120.6782584 383.50609118 120.67706418 C380.39890802 120.67689273 377.29172486 120.67667731 374.1845417 120.67642975 C373.41950438 120.67637398 372.65446706 120.67631821 371.86624679 120.67626075 C359.57588766 120.67511202 347.28555648 120.66410532 334.99520677 120.64954269 C322.63351376 120.6351492 310.27185641 120.63195681 297.91015732 120.63998267 C291.21848938 120.64403563 284.5269265 120.64298168 277.83526421 120.62892532 C271.70180065 120.61615958 265.56850086 120.61740752 259.43503744 120.62951604 C257.22374143 120.63146837 255.01243371 120.6284162 252.80115413 120.61967167 C218.83730985 120.49393341 187.71121332 129.30570873 164.33349609 155.41210938 Z " fill="#FAFAFA" transform="translate(0,0)"/>
<path d="M0 0 C1.17473877 -0.00708481 2.34947754 -0.01416962 3.55981445 -0.02146912 C4.83994415 -0.0189917 6.12007385 -0.01651428 7.43899536 -0.01396179 C8.80767087 -0.01831145 10.17634395 -0.02349544 11.54501343 -0.02944946 C15.25584032 -0.0428245 18.96656526 -0.04341974 22.67741156 -0.04088616 C25.7787006 -0.03981529 28.87996911 -0.04470287 31.98125374 -0.04949158 C39.30019109 -0.06058191 46.61907712 -0.06102706 53.9380188 -0.05497742 C61.479887 -0.04893918 69.02156856 -0.06124582 76.56340492 -0.08254749 C83.04595148 -0.10018169 89.52843873 -0.10616192 96.01100838 -0.10290974 C99.87944942 -0.10109941 103.74775736 -0.10370791 107.61617661 -0.11762428 C111.25568287 -0.13022747 114.89489898 -0.12823523 118.53440094 -0.11521339 C120.4999111 -0.11173156 122.46543022 -0.12300765 124.4309082 -0.13478088 C132.29804833 -0.08803098 137.08383463 0.81363974 143.81838989 4.88569641 C150.88692242 12.14527036 150.67994398 21.00909423 150.55381012 30.54637337 C150.53782398 31.70627187 150.53782398 31.70627187 150.52151489 32.88960266 C150.51404203 34.49099008 150.50835404 36.09238673 150.50436401 37.69378662 C150.48918975 41.88116808 150.44998056 46.06798265 150.4055481 50.25514221 C150.36441668 54.53881668 150.34631509 58.82258395 150.32620239 63.10639954 C150.28347678 71.4914235 150.21532716 79.87598917 150.13088989 88.26069641 C151.51014648 88.70880676 151.51014648 88.70880676 152.91726685 89.16596985 C155.83207417 90.15890429 158.58502385 91.33175149 161.37918091 92.62055969 C184.4759225 103.22243806 210.39832234 109.50518849 235.81448364 110.45600891 C236.58872681 110.48791321 237.36296997 110.5198175 238.16067505 110.5526886 C239.64024251 110.60649105 241.12062623 110.64213314 242.60110474 110.65620422 C245.98714038 110.76598617 247.85170028 111.05262947 250.59963989 113.10054016 C252.13088989 115.26069641 252.13088989 115.26069641 252.31838989 118.44819641 C249.37035641 127.91293549 240.72519486 135.68786492 232.90823364 141.46772766 C232.19787964 141.99471252 231.48752563 142.52169739 230.75564575 143.06465149 C230.21947632 143.45934631 229.68330688 143.85404114 229.13088989 144.26069641 C230.30071411 144.27004211 231.47053833 144.27938782 232.67581177 144.28901672 C237.04467889 144.32909703 241.41285513 144.394905 245.78128052 144.46821594 C247.66660643 144.49632138 249.55204789 144.51758747 251.43753052 144.5316925 C254.15883089 144.5532673 256.8787572 144.5999899 259.59963989 144.65132141 C260.85013123 144.65316437 260.85013123 144.65316437 262.12588501 144.65504456 C267.89243462 144.79714 272.29149737 146.05554649 277.13088989 149.26069641 C279.18948364 151.47944641 279.18948364 151.47944641 280.56838989 153.76069641 C281.2780188 154.88991516 281.2780188 154.88991516 282.00198364 156.04194641 C283.97391555 159.91757728 284.25781501 163.33463894 284.27133179 167.65441895 C284.27704193 168.74916534 284.28275208 169.84391174 284.28863525 170.97183228 C284.28975311 172.16825851 284.29087097 173.36468475 284.29202271 174.59736633 C284.29698761 175.86121155 284.30195251 177.12505676 284.30706787 178.42720032 C284.32016945 181.89233276 284.32663277 185.35744584 284.33107853 188.82259917 C284.33401368 190.99026927 284.33811938 193.15793413 284.3425827 195.32560158 C284.3562535 202.11567001 284.36592145 208.9057264 284.36978459 215.69580764 C284.37426048 223.51881378 284.39178816 231.34164478 284.42078519 239.16459769 C284.44244958 245.22082345 284.45249145 251.2770001 284.45382571 257.33326417 C284.45487061 260.94581838 284.46071037 264.55820785 284.47864532 268.17072105 C284.49829079 272.20627216 284.49381816 276.24146007 284.48733521 280.27705383 C284.49654999 281.46335892 284.50576477 282.649664 284.51525879 283.87191772 C284.47662277 291.56453698 284.0318882 298.71325097 279.00979614 304.85444641 C278.24538208 305.48350891 277.48096802 306.11257141 276.69338989 306.76069641 C275.93155396 307.41038391 275.16971802 308.06007141 274.38479614 308.72944641 C270.74830175 311.19999373 267.49792477 311.38555496 263.1701355 311.38095093 C262.17176666 311.38232559 261.17339783 311.38370026 260.14477539 311.38511658 C259.05576935 311.3815213 257.96676331 311.37792603 256.84475708 311.3742218 C255.11749893 311.37444084 255.11749893 311.37444084 253.35534668 311.37466431 C249.54613364 311.37396719 245.7369694 311.36618411 241.92776489 311.35835266 C239.28789293 311.35648777 236.64802062 311.3550642 234.00814819 311.35406494 C227.76797955 311.35095788 221.52782844 311.34275292 215.28766751 311.33271545 C208.18251286 311.3215349 201.07735736 311.31603897 193.9721961 311.31102002 C179.35841832 311.30056979 164.74465435 311.28298245 150.13088989 311.26069641 C150.13457706 311.84507949 150.13826424 312.42946257 150.14206314 313.03155422 C150.23057061 327.27991135 150.29667532 341.52822704 150.33813858 355.77680111 C150.35872518 362.6674483 150.38677045 369.55791149 150.43264771 376.44844055 C150.47691869 383.10091287 150.50004281 389.75324459 150.51039886 396.40587044 C150.51777703 398.94114244 150.53218482 401.47640426 150.55381012 404.01159477 C150.58293989 407.56873348 150.58684172 411.12508805 150.58499146 414.68232727 C150.59937256 415.72530472 150.61375366 416.76828217 150.62857056 417.84286499 C150.58684206 425.27993761 149.32582671 431.81615515 144.13088989 437.41694641 C143.14088989 438.08210266 143.14088989 438.08210266 142.13088989 438.76069641 C141.47088989 439.22475891 140.81088989 439.68882141 140.13088989 440.16694641 C136.28015664 442.27281616 132.69110366 442.39101718 128.35079956 442.41459656 C127.17046646 442.42319702 125.99013336 442.43179749 124.77403259 442.44065857 C123.48252792 442.44491852 122.19102325 442.44917847 120.86038208 442.4535675 C119.48362524 442.46147302 118.10687044 442.46974225 116.7301178 442.47834778 C112.21268681 442.5045143 107.6952468 442.51986931 103.17776489 442.53413391 C101.62025192 442.53949566 100.062739 442.54487317 98.50522614 442.55026627 C92.0249957 442.57188645 85.5447677 442.59062209 79.06451035 442.60188866 C69.78939168 442.61812281 60.51469221 442.65129711 51.23973155 442.7082895 C44.71134209 442.74703241 38.18306456 442.76652642 31.65456319 442.77180922 C27.75854944 442.77545654 23.86298334 442.78741127 19.96709442 442.81991196 C16.29958372 442.85007012 12.63278973 442.85627749 8.96518135 442.8445282 C6.98667295 442.84420361 5.00820826 442.86861715 3.02986145 442.89390564 C-5.22265637 442.83629595 -10.52148905 441.61262054 -16.41656876 435.71170616 C-19.94427847 431.71203745 -20.99496268 428.68115101 -20.98936462 423.4581604 C-20.99142662 421.97529037 -20.99142662 421.97529037 -20.99353027 420.46246338 C-20.989935 419.3792128 -20.98633972 418.29596222 -20.9826355 417.17988586 C-20.98278152 416.03828003 -20.98292755 414.89667419 -20.983078 413.72047424 C-20.98238004 409.93828954 -20.97459302 406.15615378 -20.96676636 402.37397766 C-20.96490177 399.75509671 -20.96347806 397.13621541 -20.96247864 394.51733398 C-20.95936964 388.32317274 -20.95116204 382.12902914 -20.94112915 375.93487567 C-20.92995465 368.88294756 -20.92445419 361.83101861 -20.91943371 354.77908385 C-20.90897908 340.2729456 -20.89138796 325.76682125 -20.86911011 311.26069641 C-21.48018364 311.26530538 -22.09125717 311.26991434 -22.72084808 311.27466297 C-37.61140353 311.3852373 -52.50191918 311.46789906 -67.39278412 311.51975727 C-74.59402745 311.54550426 -81.79499619 311.58058696 -88.99606323 311.63789368 C-95.27485993 311.68783693 -101.5534577 311.72001291 -107.83244753 311.73113889 C-111.15516778 311.73763949 -114.47718863 311.75549198 -117.79975891 311.78934669 C-121.51527501 311.82569617 -125.2296164 311.83063895 -128.94528198 311.82832336 C-130.0386084 311.84629974 -131.13193481 311.86427612 -132.25839233 311.88279724 C-139.93544082 311.83110033 -144.80444673 310.12072899 -150.38845062 304.81784534 C-154.76476279 299.99285029 -156.11431927 294.93746016 -156.13653564 288.55053711 C-156.14506561 287.43621307 -156.15359558 286.32188904 -156.16238403 285.17379761 C-156.16147766 283.96586044 -156.16057129 282.75792328 -156.15963745 281.51338196 C-156.16635468 280.22973755 -156.1730719 278.94609314 -156.17999268 277.62355042 C-156.19760917 274.11306358 -156.20234623 270.60267435 -156.20362425 267.09214759 C-156.20504897 264.89531241 -156.20932466 262.6985018 -156.21461868 260.50167274 C-156.23310516 252.82733723 -156.24129111 245.15307104 -156.23971558 237.47871399 C-156.23851481 230.34182166 -156.25960767 223.20523206 -156.2912029 216.0684163 C-156.31741493 209.92721446 -156.3280808 203.78611119 -156.32680476 197.64485389 C-156.32629653 193.98310521 -156.33190182 190.3216257 -156.35316086 186.65993309 C-156.37624905 182.57181211 -156.36699239 178.48436297 -156.35494995 174.39619446 C-156.37180847 172.59339775 -156.37180847 172.59339775 -156.38900757 170.75418091 C-156.33023688 162.88829273 -155.41271216 156.01514618 -149.83395386 150.10444641 C-149.16493042 149.66100891 -148.49590698 149.21757141 -147.80661011 148.76069641 C-147.13500854 148.29663391 -146.46340698 147.83257141 -145.77145386 147.35444641 C-142.7804243 145.63475796 -140.24057265 145.13009779 -136.85665894 145.05537415 C-136.05605545 145.03542892 -135.25545197 145.0154837 -134.43058777 144.99493408 C-133.1413868 144.96986534 -133.1413868 144.96986534 -131.82614136 144.94429016 C-130.9425444 144.92350906 -130.05894745 144.90272797 -129.14857483 144.88131714 C-126.32633226 144.81593887 -123.50399676 144.75699113 -120.68161011 144.69819641 C-118.76818904 144.65500004 -116.85477737 144.61138539 -114.94137573 144.56733704 C-110.25071574 144.46026946 -105.55996227 144.3589689 -100.86911011 144.26069641 C-101.87578735 143.46514343 -101.87578735 143.46514343 -102.90280151 142.65351868 C-104.23577271 141.59475525 -104.23577271 141.59475525 -105.59567261 140.51460266 C-106.47304077 139.81923401 -107.35040894 139.12386536 -108.25436401 138.40742493 C-115.16051365 132.73741804 -122.2204738 126.82043617 -123.30661011 117.51069641 C-122.86911011 114.26069641 -122.86911011 114.26069641 -121.66989136 112.59223938 C-119.25659625 110.80778825 -117.60690569 110.82080638 -114.61911011 110.70600891 C-113.54934937 110.65154602 -112.47958862 110.59708313 -111.37741089 110.54096985 C-110.21967163 110.48972961 -109.06193237 110.43848938 -107.86911011 110.38569641 C-80.04887586 108.71999303 -53.25944119 102.57123558 -27.84762573 91.12690735 C-25.54198651 90.11747892 -23.20747212 89.19144065 -20.86911011 88.26069641 C-20.88021317 87.35138367 -20.89131622 86.44207092 -20.90275574 85.50520325 C-21.00316155 76.91354969 -21.07917838 68.32209469 -21.12817097 59.7299881 C-21.154206 55.31321068 -21.18949137 50.8969202 -21.24630737 46.48042297 C-21.30084644 42.21396129 -21.33057644 37.94796639 -21.34349632 33.68118286 C-21.35269715 32.0577256 -21.37066437 30.43429236 -21.39776039 28.81103516 C-21.66168485 12.33682657 -21.66168485 12.33682657 -15.86911011 6.26069641 C-11.03779511 1.67094717 -6.62099499 0.01334244 0 0 Z " fill="#0E689F" transform="translate(447.8691101074219,180.7393035888672)"/>
<path d="M0 0 C2.28979454 -0.00230665 4.57958833 -0.00548454 6.86938059 -0.00945449 C13.13894355 -0.01778317 19.40844541 -0.01368593 25.67800856 -0.00748205 C31.75233572 -0.00341653 37.82664839 -0.00875584 43.9009736 -0.01377678 C57.08641473 -0.02429054 70.27183644 -0.02340248 83.4572794 -0.01761896 C94.99752901 -0.01258212 106.53777152 -0.01127711 118.078022 -0.01366425 C118.84437398 -0.01381702 119.61072596 -0.01396979 120.40030072 -0.01412719 C123.51142078 -0.01474989 126.62254085 -0.0153867 129.7336609 -0.01604671 C158.90343476 -0.02216118 188.07319627 -0.01662361 217.24296822 -0.00585292 C243.13819189 0.00363599 269.03339589 0.00279022 294.92861938 -0.0067749 C324.04300889 -0.01749324 353.1573875 -0.0217256 382.2717787 -0.01555037 C385.37775588 -0.01490897 388.48373306 -0.01428329 391.58971024 -0.01366425 C392.73680924 -0.01342701 392.73680924 -0.01342701 393.90708195 -0.01318499 C405.43650505 -0.0109136 416.96592025 -0.01356399 428.49534225 -0.01862335 C441.61125887 -0.02435031 454.72715308 -0.02289432 467.84306692 -0.01206186 C474.53245991 -0.00671876 481.22180806 -0.0047343 487.91120338 -0.01136017 C494.04009814 -0.01733893 500.16891623 -0.0140127 506.29780407 -0.00340506 C508.50964544 -0.00117919 510.72149333 -0.00228898 512.93333046 -0.00715664 C545.45630403 -0.07321549 574.47759959 5.91109944 598.46768188 29.25396729 C599.10190063 29.8379126 599.73611938 30.42185791 600.38955688 31.02349854 C615.43260383 45.23451855 626.11299769 69.13829291 627.65348308 89.73861568 C627.72414402 92.33976208 627.73678768 94.93422205 627.72495079 97.53629971 C627.72845686 98.52646767 627.73196294 99.51663564 627.73557526 100.5368087 C627.74485764 103.84512704 627.73997405 107.15326812 627.73510742 110.46159363 C627.73884528 112.86144309 627.74344735 115.26129133 627.74883807 117.66113764 C627.75851486 122.87416093 627.76198528 128.08715015 627.75992584 133.30018044 C627.75687069 141.05271503 627.76521132 148.80520867 627.77567509 156.55773529 C627.79500254 171.21238734 627.80064289 185.86702539 627.80178921 200.52168869 C627.80270897 211.84280081 627.80682919 223.16390744 627.81319046 234.48501778 C627.81498562 237.74612142 627.81676524 241.00722507 627.81854022 244.26832873 C627.81920336 245.48449114 627.81920336 245.48449114 627.8198799 246.72522249 C627.83218634 269.52752531 627.84008125 292.32982624 627.83919334 315.13213253 C627.83916219 315.99160075 627.83913103 316.85106897 627.83909893 317.73658168 C627.83893272 322.09251036 627.83873464 326.44843904 627.83852951 330.80436771 C627.83846968 332.10196923 627.83846968 332.10196923 627.83840863 333.42578492 C627.83832776 335.17516368 627.83824416 336.92454244 627.83815785 338.67392119 C627.83693295 365.87778933 627.85193504 393.08160757 627.87930298 420.28546143 C627.91005536 450.86590519 627.92723351 481.44631617 627.92537653 512.02677637 C627.92522728 515.29070922 627.92512986 518.55464206 627.9250679 521.81857491 C627.92503294 523.02402094 627.92503294 523.02402094 627.92499727 524.25381942 C627.92493584 537.16119909 627.93768329 550.0685353 627.95493243 562.97590207 C627.97192518 575.96047459 627.97383439 588.94498385 627.96071379 601.92956137 C627.95334835 609.63306064 627.95691006 617.33636711 627.97659847 625.03984577 C627.9900879 630.80770471 627.98242215 636.57538706 627.96685202 642.34323365 C627.96379111 644.6649276 627.96737987 646.9866427 627.97857217 649.30831169 C628.06034485 667.48554213 626.68225547 684.73354708 618.46768188 701.25396729 C617.94174438 702.33162354 617.41580688 703.40927979 616.87393188 704.51959229 C613.14233106 711.81317571 608.93545167 718.15716203 603.46768188 724.25396729 C602.66717407 725.14857666 601.86666626 726.04318604 601.04190063 726.96490479 C582.46149996 746.61883972 556.88896087 757.09065894 530.02272771 758.37043275 C523.26737281 758.55745577 516.51032732 758.5273963 509.75300598 758.5146637 C507.46774795 758.51768831 505.18249094 758.52157935 502.89723569 758.52625626 C496.64938752 758.53650491 490.40159693 758.53436244 484.1537441 758.53007567 C478.09743862 758.52785712 472.04114842 758.53502851 465.98484813 758.54183592 C452.07766506 758.55703942 438.17050027 758.55878477 424.26331063 758.5563129 C413.52106647 758.55447705 402.77882827 758.55624596 392.03658485 758.56053734 C390.4908063 758.56113975 388.94502775 758.56174095 387.3992492 758.56234094 C385.06963707 758.56324824 382.74002494 758.56415691 380.41041281 758.56507329 C358.76375459 758.57349729 337.11709859 758.57784232 315.47043896 758.57366657 C314.24754834 758.57343201 314.24754834 758.57343201 312.99995286 758.57319271 C308.86831028 758.57238698 304.7366677 758.5715412 300.60502513 758.5706794 C299.78453321 758.57050832 298.96404128 758.57033723 298.11868597 758.57016096 C296.4594542 758.5698143 294.80022243 758.56946577 293.14099067 758.56911537 C267.32596472 758.56375873 241.51097294 758.57168924 215.69595337 758.59014893 C186.66245677 758.61088597 157.62898134 758.62158843 128.59547693 758.61757344 C125.49706002 758.61717812 122.39864312 758.61681657 119.30022621 758.61647606 C118.15594484 758.61633996 118.15594484 758.61633996 116.98854668 758.61620111 C105.49598393 758.61503742 94.00344263 758.62166601 82.51088524 758.63228798 C69.4338895 758.64436236 56.35694085 758.64587317 43.27994438 758.63349781 C36.61243367 758.62746964 29.94499498 758.6264908 23.27748489 758.63850021 C17.16513585 758.64938145 11.05295526 758.64622888 4.94061402 758.63223853 C2.73819958 758.6295978 0.53577184 758.63193833 -1.66662953 758.63997439 C-34.56675063 758.7516166 -63.15341268 751.35461112 -87.21981812 727.87896729 C-91.97895121 722.99951903 -95.98826706 718.0728046 -99.53231812 712.25396729 C-100.51845093 710.6413501 -100.51845093 710.6413501 -101.52450562 708.99615479 C-110.48509495 693.64088614 -114.6954808 676.93481883 -114.66653919 659.23055458 C-114.66889142 658.24408308 -114.67124365 657.25761158 -114.67366716 656.241247 C-114.68032763 652.9335151 -114.67989983 649.62582275 -114.67948914 646.31808472 C-114.68278959 643.92337433 -114.68651554 641.52866449 -114.69063061 639.13395536 C-114.69958876 633.24122358 -114.70387494 627.34849886 -114.70614958 621.45576172 C-114.70911741 614.39555238 -114.71781821 607.33535295 -114.72656386 600.27514882 C-114.74738575 583.211525 -114.75787458 566.14789948 -114.76669347 549.08426592 C-114.77090328 541.00806477 -114.77612482 532.93186435 -114.781378 524.85566382 C-114.79926641 497.19691228 -114.81426127 469.53816053 -114.82169819 441.87940407 C-114.82217294 440.14370643 -114.82264883 438.40800879 -114.82312585 436.67231115 C-114.82336223 435.81158332 -114.8235986 434.95085548 -114.82384214 434.06404499 C-114.82504331 429.70336153 -114.82625877 425.34267808 -114.82748413 420.98199463 C-114.82772428 420.11661293 -114.82796443 419.25123124 -114.82821186 418.35962586 C-114.8361023 390.31083293 -114.85952978 362.26208233 -114.89204007 334.21330787 C-114.92636805 304.5419962 -114.94605207 274.87070928 -114.94934243 245.19937742 C-114.94975995 241.93964409 -114.95023951 238.67991077 -114.95076561 235.42017746 C-114.9508888 234.6175695 -114.95101199 233.81496153 -114.95113892 232.98803212 C-114.95346722 220.0933592 -114.96910644 207.19873559 -114.98960746 194.30408022 C-115.00990258 181.33272747 -115.01532535 168.3614337 -115.00583682 155.39006801 C-115.00063621 147.69303007 -115.00643086 139.99618904 -115.02837149 132.29917959 C-115.04354703 126.53783108 -115.03758652 120.77665344 -115.02370097 115.01530878 C-115.02132835 112.69491663 -115.02563034 110.37450528 -115.03752962 108.05414243 C-115.17741938 78.95809762 -108.30447175 53.15752664 -87.83309937 31.55474854 C-62.93445837 6.65610754 -34.17582455 -0.07504673 0 0 Z M-71.79403687 50.70318604 C-84.47152695 66.08520734 -90.8823342 83.55295061 -90.78958702 103.49034977 C-90.7930931 104.46339907 -90.79659917 105.43644837 -90.80021149 106.43898401 C-90.80947781 109.68303897 -90.80461449 112.92691253 -90.79974365 116.17097473 C-90.80348231 118.52702716 -90.8080847 120.88307835 -90.8134743 123.23912758 C-90.82441365 129.02460694 -90.82607816 134.81003663 -90.82375259 140.59552466 C-90.82147393 147.52977366 -90.83077508 154.46399528 -90.84031132 161.39823637 C-90.85963078 175.77482571 -90.86527879 190.15140076 -90.86642544 204.52800155 C-90.8673454 215.63361399 -90.87146662 226.73922084 -90.87782669 237.84483147 C-90.87962185 241.04446265 -90.88140148 244.24409385 -90.88317645 247.44372505 C-90.88361854 248.23922356 -90.88406064 249.03472207 -90.88451613 249.85432659 C-90.89682094 272.22402065 -90.90471763 294.59371278 -90.90382957 316.96341038 C-90.90379842 317.80642634 -90.90376726 318.6494423 -90.90373516 319.5180042 C-90.90356895 323.79050797 -90.90337087 328.06301174 -90.90316574 332.33551551 C-90.90312585 333.18400971 -90.90308596 334.0325039 -90.90304486 334.90671005 C-90.90296399 336.62257209 -90.90288039 338.33843413 -90.90279408 340.05429618 C-90.90156898 366.7413991 -90.91657569 393.42845117 -90.94393921 420.11553955 C-90.97468897 450.11733116 -90.99186994 480.11908935 -90.99001276 510.12089771 C-90.98986351 513.32272939 -90.98976609 516.52456106 -90.98970413 519.72639275 C-90.98968082 520.5147297 -90.98965751 521.30306666 -90.9896335 522.11529261 C-90.98957206 534.77826907 -91.00232062 547.44120122 -91.01956866 560.10416452 C-91.03655799 572.84103224 -91.03847324 585.57783544 -91.02535002 598.31470824 C-91.01862874 605.20905061 -91.01815015 612.1032473 -91.03605652 618.99757385 C-91.05182114 625.31736876 -91.0488886 631.63687755 -91.03148825 637.95666563 C-91.02842586 640.23457062 -91.03202179 642.51249715 -91.04320841 644.79037673 C-91.11618531 660.71366309 -90.70601866 677.44180832 -82.78231812 691.75396729 C-82.43797729 692.40502441 -82.09363647 693.05608154 -81.73886108 693.72686768 C-71.44599209 712.5971275 -54.89267473 724.02098414 -34.80966187 730.34381104 C-28.77232641 732.02044889 -23.37829605 732.39860432 -17.14075089 732.38818836 C-15.70884007 732.39171671 -15.70884007 732.39171671 -14.24800175 732.39531633 C-11.03060839 732.4020041 -7.81325544 732.40154817 -4.59585571 732.40113831 C-2.27314338 732.40443708 0.04956838 732.40816268 2.37227941 732.41227978 C8.09854021 732.42125418 13.8247912 732.42552724 19.55105828 732.42779875 C26.40955624 732.43076184 33.26804395 732.43946 40.12653652 732.44821303 C56.70620384 732.46905624 73.28587294 732.47952783 89.8655503 732.48834264 C97.71149879 732.49255014 105.55744651 732.49777205 113.40339435 732.50302717 C140.26829075 732.52091905 167.13318737 732.5359136 193.99808884 732.54334736 C195.68470318 732.54382211 197.37131752 732.544298 199.05793186 732.54477502 C199.89433235 732.5450114 200.73073284 732.54524777 201.5924788 732.54549131 C205.83001394 732.54669249 210.06754909 732.54790795 214.30508423 732.5491333 C215.14603301 732.54937345 215.9869818 732.5496136 216.85341388 732.54986103 C244.10471558 732.55774986 271.35597369 732.58117224 298.60725636 732.61368924 C327.42747564 732.64801545 356.24766943 732.66770118 385.06790948 732.6709916 C388.23414883 732.67140913 391.40038817 732.67188869 394.5666275 732.67241478 C395.34622883 732.67253797 396.12583016 732.67266116 396.92905577 732.67278809 C409.45680762 732.67511687 421.98450873 732.69075904 434.51224252 732.71125663 C447.11539631 732.73154973 459.7184894 732.73697552 472.3216565 732.72748599 C479.14495997 732.7227406 485.96808958 732.72482457 492.7913723 732.74424744 C499.04535176 732.76189558 505.2990475 732.76086754 511.55303004 732.74535014 C513.80821869 732.74297661 516.06342707 732.74728427 518.3185856 732.75917879 C541.63603276 732.87448511 561.5345502 729.46576871 579.46768188 713.25396729 C580.1753772 712.62748291 580.88307251 712.00099854 581.61221313 711.35552979 C595.33448254 698.49910147 602.79570494 679.61358666 603.56077614 660.98754036 C603.59769554 658.4610671 603.60413791 655.93632314 603.59910965 653.40958309 C603.60116228 652.44247328 603.60321492 651.47536348 603.60532975 650.47894731 C603.61098583 647.23710658 603.60954422 643.99530853 603.60812378 640.75346375 C603.61070821 638.40611299 603.61372159 636.05876267 603.61712718 633.71141297 C603.62434585 627.93591936 603.62689936 622.16043682 603.62745624 616.38493903 C603.62837158 609.46519704 603.63504417 602.54546355 603.64180306 595.62572523 C603.65784763 578.9029377 603.66376452 562.18015111 603.66855181 545.45735726 C603.67088923 537.54359367 603.67449204 529.6298308 603.67824719 521.71606778 C603.69108113 494.61664094 603.7018006 467.5172145 603.70524979 440.41778469 C603.70547142 438.71729579 603.7056932 437.01680688 603.70591514 435.31631798 C603.70613578 433.61176882 603.70635626 431.90721967 603.70657659 430.20267051 C603.70701913 426.78316462 603.70746625 423.36365873 603.70791626 419.94415283 C603.70802565 419.09631697 603.70813504 418.24848111 603.70824775 417.37495326 C603.71187794 389.88722081 603.72779737 362.39951474 603.75110662 334.91179239 C603.77571617 305.8374323 603.78942314 276.76308728 603.7906177 247.68871647 C603.79078915 244.49559819 603.79100458 241.30247992 603.79125214 238.10936165 C603.79133579 236.93004301 603.79133579 236.93004301 603.79142113 235.72689975 C603.79257057 223.08827849 603.80358337 210.44968436 603.81813919 197.81107225 C603.83252291 185.1019057 603.83573059 172.39277383 603.82769921 159.68360137 C603.82364244 152.80182544 603.82432057 145.92013255 603.83875656 139.03836823 C603.8515008 132.73345843 603.85029314 126.42870809 603.83816585 120.1237985 C603.83620979 117.8478758 603.83928301 115.57194179 603.84801021 113.29603498 C603.92984075 90.50565671 601.31659862 71.5647702 586.46768188 53.25396729 C585.69553345 52.27427979 584.92338501 51.29459229 584.12783813 50.28521729 C571.18008177 34.87110429 551.89322433 27.9197072 532.46768188 25.25396729 C529.35636735 25.1124177 526.24901089 25.11618499 523.13488865 25.12253952 C522.19878888 25.12048689 521.26268912 25.11843425 520.29822269 25.11631942 C517.14982633 25.11064829 514.0014737 25.11210682 510.85307312 25.11352539 C508.57757007 25.11094181 506.30206746 25.10792867 504.02656549 25.10452199 C497.76400822 25.09644772 491.5014624 25.09466218 485.23890054 25.09392452 C479.18119089 25.09226459 473.12348714 25.08594699 467.06578077 25.07984611 C450.83587457 25.06379062 434.60596932 25.05788311 418.37605661 25.05309736 C410.69596609 25.05076072 403.01587633 25.04715797 395.3357864 25.04340198 C369.0389706 25.03056619 342.74215521 25.01984757 316.44533634 25.01639938 C314.79472537 25.01617775 313.14411439 25.01595597 311.49350342 25.01573403 C309.83893196 25.01551339 308.18436049 25.01529291 306.52978903 25.01507258 C303.21050266 25.01463003 299.8912163 25.01418292 296.57192993 25.01373291 C295.33744597 25.01356882 295.33744597 25.01356882 294.07802294 25.01340142 C267.40145478 25.00977199 240.72491382 24.99385638 214.04835607 24.97054255 C185.83563972 24.94593135 157.6229389 24.93222592 129.4102115 24.93103147 C126.31142739 24.93086002 123.21264328 24.93064459 120.11385918 24.93039703 C118.96937137 24.93031338 118.96937137 24.93031338 117.80176261 24.93022804 C105.53682397 24.92907864 93.2719133 24.91806601 81.0069841 24.90350998 C68.67172246 24.88912398 56.33649655 24.88591983 44.00122882 24.89394996 C37.32198803 24.89800607 30.6428525 24.89693454 23.96361732 24.88289261 C17.84366842 24.87014434 11.72388376 24.87135956 5.60393506 24.88348332 C3.39524684 24.8854387 1.18654695 24.88236929 -1.02212488 24.87363896 C-27.92744878 24.77406083 -52.7132996 30.04062599 -71.79403687 50.70318604 Z " fill="#0E679E" transform="translate(255.53231811523438,120.74603271484375)"/>
<path d="M0 0 C12.54 0 25.08 0 38 0 C44.88632202 13.77264404 44.88632202 13.77264404 47.375 20.0703125 C47.66153442 20.78243896 47.94806885 21.49456543 48.24328613 22.22827148 C49.16668808 24.52540624 50.08334149 26.82516714 51 29.125 C52.32071309 32.41755336 53.64480011 35.70874708 54.96875 39 C55.30265747 39.83145538 55.63656494 40.66291077 55.98059082 41.51956177 C58.23688663 47.13041973 60.5267454 52.72645371 62.84375 58.3125 C63.305252 59.42527565 63.305252 59.42527565 63.77607727 60.56053162 C64.38526665 62.02882517 64.99454371 63.49708235 65.60391235 64.96530151 C70.26807893 76.20660534 74.80038954 87.46537543 78.86328125 98.94140625 C79.69756341 101.83639002 79.69756341 101.83639002 81 103 C81.391875 101.92492187 81.78375 100.84984375 82.1875 99.7421875 C93.42640568 69.38801014 106.76209649 39.78003709 119.52734375 10.046875 C119.86512344 9.25913193 120.20290314 8.47138885 120.55091858 7.65977478 C122.88299203 2.23401594 122.88299203 2.23401594 124 0 C135.88 0 147.76 0 160 0 C160 52.47 160 104.94 160 159 C150.43 159 140.86 159 131 159 C131 124.35 131 89.7 131 54 C114.8528235 90.97296616 114.8528235 90.97296616 99.125 128.125 C98.81126434 128.87930298 98.49752869 129.63360596 98.17428589 130.4107666 C94.89899504 138.13406424 94.89899504 138.13406424 92 146 C84.41 146 76.82 146 69 146 C68.195625 144.0509375 67.39125 142.101875 66.5625 140.09375 C54.64139028 111.28070887 42.30834269 82.64992763 30 54 C29.67 88.65 29.34 123.3 29 159 C19.43 159 9.86 159 0 159 C0 106.53 0 54.06 0 0 Z " fill="#0E689E" transform="translate(439,657)"/>
<path d="M0 0 C10.23 0 20.46 0 31 0 C31 21.12 31 42.24 31 64 C54.43 64 77.86 64 102 64 C102 42.88 102 21.76 102 0 C112.23 0 122.46 0 133 0 C133 52.47 133 104.94 133 159 C122.44 159 111.88 159 101 159 C101 136.89 101 114.78 101 92 C77.9 92 54.8 92 31 92 C31 114.11 31 136.22 31 159 C20.77 159 10.54 159 0 159 C0 106.53 0 54.06 0 0 Z " fill="#0D669D" transform="translate(273,657)"/>
<path d="M0 0 C8.68440426 6.68511695 14.05398445 15.86313203 17.1875 26.3125 C17.6825 30.7675 17.6825 30.7675 18.1875 35.3125 C7.9575 35.3125 -2.2725 35.3125 -12.8125 35.3125 C-14.1325 32.3425 -15.4525 29.3725 -16.8125 26.3125 C-21.15660032 20.8823746 -27.06509852 17.76765791 -33.8125 16.3125 C-50.27066989 14.83570762 -50.27066989 14.83570762 -64.8125 21.3125 C-68.63559698 24.99166863 -70.95318868 28.20624522 -71.0625 33.5625 C-70.96423781 38.68032254 -69.92052436 41.92951594 -66.46484375 45.8359375 C-59.01792805 52.51950193 -47.92474888 53.83988532 -38.48876953 56.11328125 C-0.31418157 65.31932091 -0.31418157 65.31932091 10.1875 75.3125 C11.02861328 76.09367188 11.02861328 76.09367188 11.88671875 76.890625 C20.25958338 85.57984471 22.53191402 97.51322827 22.40234375 109.16015625 C21.59147634 121.0577926 16.5806666 132.00578088 7.89453125 140.14453125 C-8.94656521 153.63198945 -30.60276343 157.92966467 -51.8125 156.3125 C-69.62451244 154.02340603 -87.10456761 147.46494574 -98.8125 133.3125 C-105.01521017 124.93668256 -109.22229357 114.84104246 -108.8125 104.3125 C-98.18969894 102.91934576 -87.50123373 103.21574917 -76.8125 103.3125 C-76.58175781 104.03695312 -76.35101562 104.76140625 -76.11328125 105.5078125 C-73.3687538 113.64376344 -70.72890191 118.98836198 -62.875 123.0625 C-51.77638764 128.33917782 -38.48353048 129.63067079 -26.625 125.75 C-20.74372694 123.16663707 -15.76166356 119.39867564 -12.3125 113.9375 C-11.298008 108.61141702 -10.85186532 103.54909594 -13.3125 98.5625 C-17.73918222 92.08880289 -24.97561912 89.58044045 -32.3125 87.875 C-33.1163916 87.67455078 -33.9202832 87.47410156 -34.74853516 87.26757812 C-37.43309766 86.60089733 -40.12205602 85.95501498 -42.8125 85.3125 C-87.86853566 74.49057512 -87.86853566 74.49057512 -98.28125 59.1484375 C-104.46994416 48.67803052 -105.46333783 36.79405004 -103.16015625 24.9609375 C-99.33890416 12.26716445 -90.80217298 1.86051624 -79.125 -4.4375 C-54.76432441 -15.7219444 -22.57472355 -15.17217192 0 0 Z " fill="#0E679E" transform="translate(733.8125,664.6875)"/>
<path d="M0 0 C3.77841054 2.14748643 7.45262245 4.45815739 11.13208008 6.76977539 C18.5154998 11.39149946 26.08347543 15.37337067 34 19 C34.66290039 19.30389648 35.32580078 19.60779297 36.00878906 19.92089844 C59.21421945 30.37952675 84.5713528 35.98892059 110 37 C102.54880394 47.24985103 90.91189932 51.33787099 79 54 C78.24332031 54.185625 77.48664063 54.37125 76.70703125 54.5625 C72.55414005 55.23367434 68.38624808 55.37150549 64.1875 55.5625 C63.30384766 55.60568359 62.42019531 55.64886719 61.50976562 55.69335938 C59.34000377 55.79891536 57.1700209 55.89991071 55 56 C55.64839844 56.6084375 56.29679688 57.216875 56.96484375 57.84375 C59 60 59 60 59.5625 62.5 C59 65 59 65 57 67.1875 C50.97258895 70.82906084 43.94691299 72.02806327 37 71 C31.90284634 69.63354607 26.947444 67.82514403 22 66 C21.70609375 66.95390625 21.4121875 67.9078125 21.109375 68.890625 C19.86857754 72.36835309 19.17047859 73.23862301 16 75 C7.90777216 78.57563556 0.63024893 77.20462628 -7.51953125 74.55859375 C-10.89061618 73.79943604 -12.82494442 74.30482363 -15.76953125 76.046875 C-19.02100375 77.43629582 -22.21273405 77.29679819 -25.6875 77.25 C-26.40139893 77.24323242 -27.11529785 77.23646484 -27.85083008 77.22949219 C-34.43497508 77.10084594 -40.23256339 76.70756727 -45.9375 73.1875 C-51.26599665 67.53606416 -50.50770137 60.11863605 -50.59033203 52.81762695 C-50.61336322 51.40250637 -50.65426188 49.98755912 -50.71337891 48.57348633 C-51.20385115 36.81722274 -51.20385115 36.81722274 -48.25390625 32.36425781 C-46.1015625 30.24609375 -46.1015625 30.24609375 -43.94775391 28.55249023 C-38.83502474 24.47730288 -37.69978125 17.98696454 -36.125 11.9375 C-34.01002541 4.2511721 -31.54925782 0.03753689 -24.625 -3.9375 C-15.49241888 -6.61429102 -8.3173789 -4.2102652 0 0 Z " fill="#F9FAFA" transform="translate(578,266)"/>
<path d="M0 0 C7.02226886 4.15843854 10.08001009 8.95988097 12.16015625 16.8046875 C14.2714486 24.10458039 16.66579016 31.40212189 23.34741211 35.70458984 C26.06743832 38.32682042 26.38159542 39.66993412 26.45423889 43.38534546 C26.44098068 44.06771271 26.42772247 44.75007996 26.4140625 45.453125 C26.41647446 46.16570465 26.41888641 46.8782843 26.42137146 47.61245728 C26.420394 49.11702039 26.40702395 50.62161991 26.38208008 52.12597656 C26.34786118 54.41597326 26.36139747 56.70208778 26.38085938 58.9921875 C26.37395741 60.45834961 26.36428184 61.92450182 26.3515625 63.390625 C26.35652237 64.06894379 26.36148224 64.74726257 26.36659241 65.44613647 C26.24559888 70.39182854 24.85905831 73.23118477 21.78515625 77.0546875 C19.8203125 78.26171875 19.8203125 78.26171875 17.84765625 78.8671875 C17.19925781 79.07988281 16.55085937 79.29257812 15.8828125 79.51171875 C11.10981482 80.74718742 6.73095778 81.21553986 1.78515625 81.2421875 C0.58890625 81.25636719 -0.60734375 81.27054687 -1.83984375 81.28515625 C-5.13845548 81.05990383 -7.23739205 80.40761741 -10.21484375 79.0546875 C-13.76724487 77.7774981 -15.84117925 78.33596526 -19.40234375 79.4921875 C-28.4577433 82.07429745 -33.88875024 81.77298815 -42.24609375 77.24609375 C-44.21484375 76.0546875 -44.21484375 76.0546875 -45.21484375 75.0546875 C-45.25548207 73.38851635 -45.25756475 71.72080655 -45.21484375 70.0546875 C-46.1584375 70.34472656 -46.1584375 70.34472656 -47.12109375 70.640625 C-49.81482699 71.46010409 -52.51332624 72.26126187 -55.21484375 73.0546875 C-55.92898438 73.26738281 -56.643125 73.48007812 -57.37890625 73.69921875 C-66.46144843 76.21410593 -72.92090418 75.27873851 -81.21484375 71.0546875 C-83.21484375 69.0546875 -83.21484375 69.0546875 -83.58984375 66.6796875 C-83.10653606 63.29653367 -81.66304112 62.32870482 -79.21484375 60.0546875 C-79.80797363 60.0453418 -80.40110352 60.03599609 -81.01220703 60.02636719 C-101.07229636 59.63036775 -119.54691154 57.31101813 -134.21484375 42.0546875 C-134.21484375 41.7246875 -134.21484375 41.3946875 -134.21484375 41.0546875 C-133.46726807 40.99522949 -132.71969238 40.93577148 -131.94946289 40.87451172 C-93.88304737 37.71998083 -62.11216695 27.17358774 -29.34472656 7.95800781 C-27.47061773 6.86085123 -25.59281347 5.77021818 -23.71484375 4.6796875 C-22.61140625 4.03257812 -21.50796875 3.38546875 -20.37109375 2.71875 C-13.97593613 -0.65295439 -6.97076393 -2.97517614 0 0 Z " fill="#F9FAFA" transform="translate(470.21484375,261.9453125)"/>
<path d="M0 0 C4.31867696 3.43653157 7.45379757 7.51373645 9.19921875 12.75 C10.15422812 23.24146012 8.9494001 30.39648288 2.6484375 38.82421875 C-12.67411191 56.11729558 -38.55657598 60.11760349 -59.94091797 64.19726562 C-73.87891437 66.8911041 -88.87472006 69.8164191 -97.80078125 81.75 C-99.41328162 84.97500073 -99.24606015 88.25325101 -98.80078125 91.75 C-95.85569918 98.15235232 -89.94331592 101.67873266 -83.80078125 104.75 C-82.83186933 109.77072539 -82.83186933 109.77072539 -83.80078125 112.75 C-87.17665403 115.63052941 -90.87184913 117.7089963 -94.80078125 119.75 C-105.20973943 113.01887371 -112.53579122 107.0608837 -117.17578125 95.25 C-118.71876136 86.60931136 -118.1741308 79.49601743 -113.80078125 71.75 C-108.97146064 64.86209803 -103.23116061 60.54305294 -95.80078125 56.75 C-94.9809375 56.32074219 -94.16109375 55.89148438 -93.31640625 55.44921875 C-82.31615796 50.06576391 -70.57106848 46.99896456 -58.48828125 45.3125 C-42.65117105 43.07565685 -21.32174418 39.0751757 -10.95703125 25.83984375 C-8.90619272 22.13309168 -8.95598662 19.9035736 -9.80078125 15.75 C-12.60645701 13.02934471 -14.41938406 12.77724266 -18.30078125 12.5 C-21.60895551 12.64870136 -21.60895551 12.64870136 -24.0234375 13.25 C-27.59796618 13.89351571 -31.11843988 13.97311167 -34.73828125 14 C-35.42857422 14.020625 -36.11886719 14.04125 -36.83007812 14.0625 C-42.44200662 14.10505491 -46.13861881 12.61351371 -50.67578125 9.4375 C-52.4592716 6.76226447 -52.23978265 4.88572432 -51.80078125 1.75 C-49.22046505 -2.51744603 -46.39098362 -4.41391905 -41.80078125 -6.25 C-27.58199602 -9.19181763 -12.35570798 -7.95858807 0 0 Z " fill="#F8F9FA" transform="translate(582.80078125,364.25)"/>
<path d="M0 0 C4.25249841 3.16464998 8.29552201 7.21604402 10.6875 12 C11.40607395 19.24733156 11.58998812 25.41032846 7.125 31.41015625 C5.14964594 33.5948549 3.15972859 35.39639227 0.6875 37 C0.0275 37 -0.6325 37 -1.3125 37 C-1.30464478 38.62784424 -1.30464478 38.62784424 -1.29663086 40.28857422 C-1.16608798 70.57204724 -1.4262501 100.84439942 -1.8125 131.125 C-1.82445782 132.0627401 -1.83641563 133.00048019 -1.84873581 133.96663666 C-1.9981286 145.64449579 -2.15330827 157.32227058 -2.3125 169 C-6.9325 169.99 -11.5525 170.98 -16.3125 172 C-16.32201187 170.31981277 -16.33152374 168.63962555 -16.34132385 166.90852356 C-16.43539651 151.08977901 -16.56543516 135.27176006 -16.73211765 119.45361805 C-16.81689083 111.32091028 -16.88868604 103.18847453 -16.92993164 95.05541992 C-16.96591488 87.96652243 -17.02624651 80.87832187 -17.11581463 73.78989142 C-17.1623919 70.0364686 -17.19677393 66.28382697 -17.20199776 62.53009987 C-17.2082864 58.33914139 -17.26893084 54.15065955 -17.33422852 49.96020508 C-17.32776306 48.71583176 -17.32129761 47.47145844 -17.31463623 46.18937683 C-17.25473967 40.23338579 -17.25473967 40.23338579 -19.88070488 35.15781212 C-21.96937356 33.59788761 -21.96937356 33.59788761 -25.3125 32 C-29.28864782 27.27645597 -30.00349227 21.6990144 -29.76171875 15.6796875 C-28.57947743 8.62736103 -23.92554529 4.02674988 -18.3125 0 C-12.4934392 -1.93968693 -5.84577518 -1.76476232 0 0 Z " fill="#F9FAFA" transform="translate(521.3125,233)"/>
<path d="M0 0 C4.32649852 3.27976501 7.87615839 8.70972119 9 14 C10.19566885 24.3745408 9.04532841 32.38631563 3 41 C-7.42674997 53.90662564 -21.83717475 60.12448288 -36.7109375 66.52490234 C-44.44724514 69.94238627 -52.59049381 73.74780154 -56 82 C-56.5584791 85.63011413 -56.59924027 87.99470737 -54.69140625 91.1953125 C-52.91180734 93.57664629 -51.10452549 95.89547451 -49 98 C-48.65625 100.35546875 -48.65625 100.35546875 -49 103 C-50.96875 104.80078125 -50.96875 104.80078125 -53.5 106.3125 C-54.3353125 106.82425781 -55.170625 107.33601562 -56.03125 107.86328125 C-56.6809375 108.23839844 -57.330625 108.61351562 -58 109 C-64.53368869 104.19858612 -69.48817429 98.16385884 -71 90 C-71.94562615 80.03039855 -70.55550697 73.15884182 -64.6015625 65.109375 C-57.0837454 56.6375202 -45.40677905 52.14237385 -35.3125 47.5 C-25.18600925 42.81326008 -15.83557654 37.92048011 -10 28 C-8.41844225 23.25532674 -8.25046578 19.56424533 -10.4375 15 C-13.36278488 11.57527624 -16.54656957 9.06678062 -20.171875 6.41796875 C-20.77515625 5.95003906 -21.3784375 5.48210937 -22 5 C-22 4.67 -22 4.34 -22 4 C-19.27238489 3.32636628 -16.543201 2.66090556 -13.8125 2 C-13.04357422 1.80921875 -12.27464844 1.6184375 -11.48242188 1.421875 C-3.44909192 -0.50888241 -3.44909192 -0.50888241 0 0 Z " fill="#F8F9FA" transform="translate(549,430)"/>
<path d="M0 0 C-0.66 0.33 -1.32 0.66 -2 1 C-2.65213292 3.02463255 -2.65213292 3.02463255 -3 5 C-1.68 5.33 -0.36 5.66 1 6 C-5.27 7.65 -11.54 9.3 -18 11 C-16.7625 11.886875 -15.525 12.77375 -14.25 13.6875 C-10.34090449 16.61413256 -7.21101479 19.57797043 -5 24 C-4.29828754 31.01712462 -6.20676593 35.5369598 -10.53125 40.8984375 C-17.72400408 48.12067008 -27.41592107 52.22435438 -36.4296875 56.71337891 C-38.76794991 57.88384271 -41.0895827 59.08047227 -43.40625 60.29296875 C-44.66644267 60.9457451 -45.9268423 61.59812217 -47.1875 62.25 C-48.27417969 62.81203125 -49.36085938 63.3740625 -50.48046875 63.953125 C-51.31191406 64.29859375 -52.14335937 64.6440625 -53 65 C-53.66 64.67 -54.32 64.34 -55 64 C-55 59.35714286 -55 59.35714286 -54 57 C-53.01 56.4225 -52.02 55.845 -51 55.25 C-47.89864204 53.38571014 -47.89864204 53.38571014 -47.3828125 50.96875 C-47.15270177 48.98840313 -47.06641882 46.99256448 -47 45 C-48.2375 44.7215625 -48.2375 44.7215625 -49.5 44.4375 C-54.63998576 42.32643442 -59.27892179 38.82034751 -62.2109375 34.015625 C-63.509225 30.69920743 -63.53659284 27.46773125 -63 24 C-58.53997997 15.25149917 -50.87592242 11.27064293 -42 8 C-36.7152702 6.42557886 -31.3855938 5.16712488 -26 4 C-25.15002441 3.81518066 -24.30004883 3.63036133 -23.42431641 3.43994141 C-20.74359895 2.8644229 -18.06034391 2.30350916 -15.375 1.75 C-14.53396729 1.57460693 -13.69293457 1.39921387 -12.82641602 1.21850586 C-8.47924556 0.35169449 -4.45911529 -0.20203111 0 0 Z " fill="#0D659C" transform="translate(546,424)"/>
<path d="M0 0 C1.3828125 1.34765625 1.3828125 1.34765625 3.3203125 3.72265625 C3.8153125 4.21765625 3.8153125 4.21765625 4.3203125 4.72265625 C4.38434238 8.0522101 4.32556 10.61031668 2.00488281 13.17822266 C-4.80088331 18.00005423 -11.98123038 17.18814333 -19.9921875 16.84765625 C-22.69680444 16.74813091 -25.39957806 16.67214915 -28.10546875 16.60546875 C-29.29567627 16.55793457 -30.48588379 16.51040039 -31.7121582 16.46142578 C-34.65133694 16.47260797 -34.65133694 16.47260797 -36.55541992 18.02685547 C-38.55183846 21.03817429 -38.20532879 23.21838097 -37.6796875 26.72265625 C-34.03527563 34.09140131 -26.05303408 37.18812329 -18.6796875 39.72265625 C-13.11508575 41.41466654 -7.48022648 42.81662549 -1.82910156 44.18554688 C1.24482678 44.95367981 4.28015452 45.83087658 7.3203125 46.72265625 C-7.72318774 59.15861645 -7.72318774 59.15861645 -15.42578125 60.03515625 C-18.04251143 59.55391852 -20.22882551 58.75839204 -22.6796875 57.72265625 C-23.71867187 57.38105469 -24.75765625 57.03945313 -25.828125 56.6875 C-37.76885459 52.58200439 -48.21313623 45.81516914 -54.83984375 34.79296875 C-57.62944987 28.53906108 -57.79451155 21.03330925 -56.09375 14.45703125 C-52.83235547 6.85708437 -45.97604072 1.41189432 -38.4921875 -1.71484375 C-27.91377239 -5.62692761 -9.5952206 -7.29683055 0 0 Z " fill="#F7F9FA" transform="translate(488.6796875,361.27734375)"/>
<path d="M0 0 C2.46786606 1.32885096 3.19464974 2.85575397 4.46484375 5.33203125 C4.88121094 6.12351562 5.29757812 6.915 5.7265625 7.73046875 C8.72860273 14.09166925 8.62921164 20.88393768 6.65234375 27.58203125 C2.06870664 39.45781832 -7.98411288 45.19664606 -18.4140625 51.50390625 C-19.11998535 51.93396973 -19.8259082 52.3640332 -20.55322266 52.80712891 C-21.91639788 53.63198418 -23.28681993 54.44502928 -24.66552734 55.24365234 C-30.39442428 58.6862131 -34.74320518 62.72992452 -37.55859375 68.87109375 C-38.38325365 72.70333682 -38.67798882 76.42261082 -38.84765625 80.33203125 C-38.90566406 81.43611328 -38.90566406 81.43611328 -38.96484375 82.5625 C-39.05823623 84.36030531 -39.14149335 86.15863233 -39.22265625 87.95703125 C-45.1412479 82.1756255 -49.30769512 77.25742277 -49.53515625 68.76953125 C-49.42550925 61.19392019 -46.92808339 56.57314124 -41.91015625 51.01953125 C-36.62085699 45.97785836 -30.26597504 42.58657478 -23.97021484 38.96923828 C-17.17054629 35.03078818 -10.84858721 31.20889317 -7.22265625 23.95703125 C-6.67998373 15.68127527 -9.09315112 12.34771636 -14.22265625 5.95703125 C-12.31384191 4.92158951 -10.39526421 3.9041304 -8.47265625 2.89453125 C-7.4053125 2.32605469 -6.33796875 1.75757813 -5.23828125 1.171875 C-2.22265625 -0.04296875 -2.22265625 -0.04296875 0 0 Z " fill="#F8F9FA" transform="translate(538.22265625,494.04296875)"/>
<path d="M0 0 C12.54 0 25.08 0 38 0 C38.66 1.32 39.32 2.64 40 4 C39.34 4 38.68 4 38 4 C37.505 3.01 37.505 3.01 37 2 C25.45 1.67 13.9 1.34 2 1 C2 52.48 2 103.96 2 157 C10.58 157 19.16 157 28 157 C27.96970703 155.14431396 27.93941406 153.28862793 27.90820312 151.37670898 C27.76827073 142.73036539 27.63259788 134.08395914 27.5 125.4375 C27.48218412 124.27609749 27.48218412 124.27609749 27.46400833 123.0912323 C27.09204281 98.7262006 26.84537871 74.36831555 27 50 C27.33 50 27.66 50 28 50 C28.89444804 56.10405477 29.13772805 62.01563532 29.11352539 68.1796875 C29.11367142 69.16596634 29.11381744 70.15224518 29.1139679 71.16841125 C29.11327542 74.4039638 29.10551432 77.63945761 29.09765625 80.875 C29.09578971 83.12801075 29.09436692 85.3810219 29.09336853 87.6340332 C29.08956197 93.54572686 29.07974765 99.4573957 29.06866455 105.36907959 C29.05841034 111.40881006 29.05386233 117.44854457 29.04882812 123.48828125 C29.03812364 135.32553345 29.02054198 147.16276078 29 159 C19.43 159 9.86 159 0 159 C0 106.53 0 54.06 0 0 Z " fill="#045492" transform="translate(439,657)"/>
<path d="M0 0 C0 10.56 0 21.12 0 32 C-10 37 -10 37 -12 37 C-12 25.45 -12 13.9 -12 2 C-5 0 -5 0 0 0 Z " fill="#F7F9FA" transform="translate(518,436)"/>
<path d="M0 0 C0.30976788 34.77501889 0.30976788 34.77501889 -3 42 C-4.32 42 -5.64 42 -7 42 C-9.77640105 36.12166959 -9.48205329 30.07214579 -9.53540039 23.70776367 C-9.56239634 21.57070587 -9.63737567 19.43855304 -9.71289062 17.30273438 C-9.90118366 7.36199985 -9.90118366 7.36199985 -7.47216797 3.69091797 C-5.0731532 1.57069921 -3.27207154 0 0 0 Z " fill="#F1F5F8" transform="translate(517,557)"/>
<path d="M0 0 C3.38822712 1.12940904 3.62624605 1.48516479 5.1875 4.5 C7.6233479 9.76669817 8.13481417 14.62590011 6.26953125 20.171875 C4.00792321 25.08279532 0.95811116 29.52094442 -4 32 C-3.76216797 30.92492187 -3.76216797 30.92492187 -3.51953125 29.828125 C-2.10486562 22.12723842 -2.44391285 15.79633471 -6.22265625 8.875 C-7 7 -7 7 -6 4 C-3.125 1.75 -3.125 1.75 0 0 Z " fill="#F5F8FA" transform="translate(528,550)"/>
<path d="M0 0 C1.53112087 17.02946655 1.53112087 17.02946655 -2.19140625 21.8203125 C-8.33851987 26 -8.33851987 26 -11 26 C-11 18.74 -11 11.48 -11 4 C-2 0 -2 0 0 0 Z " fill="#F3F7F9" transform="translate(518,503)"/>
<path d="M0 0 C-0.99 0.495 -0.99 0.495 -2 1 C-2.65213292 3.02463255 -2.65213292 3.02463255 -3 5 C-1.68 5.33 -0.36 5.66 1 6 C-3.1196377 7.29243536 -6.66831683 8.26252625 -11 8 C-11 6.68 -11 5.36 -11 4 C-10.01 3.67 -9.02 3.34 -8 3 C-9.65 3 -11.3 3 -13 3 C-8.48166204 0.66292864 -5.11018582 -0.11355968 0 0 Z " fill="#0A5A96" transform="translate(546,424)"/>
<path d="M0 0 C0.33 0.66 0.66 1.32 1 2 C-10.33712984 7.74031891 -10.33712984 7.74031891 -17 7 C-17 6.34 -17 5.68 -17 5 C-15.68 4.67 -14.36 4.34 -13 4 C-13 4.66 -13 5.32 -13 6 C-8.71 4.02 -4.42 2.04 0 0 Z " fill="#0C5996" transform="translate(499,414)"/>
<path d="M0 0 C1 3 1 3 -0.125 5.4375 C-2.13592027 8.1857577 -4.25910398 9.99988669 -7 12 C-7.66 11.67 -8.32 11.34 -9 11 C-8.27683594 10.31164062 -8.27683594 10.31164062 -7.5390625 9.609375 C-6.59160156 8.68898438 -6.59160156 8.68898438 -5.625 7.75 C-4.99851562 7.14671875 -4.37203125 6.5434375 -3.7265625 5.921875 C-2.02689839 4.0299412 -1.01540134 2.31798691 0 0 Z " fill="#0C5795" transform="translate(722,777)"/>
<path d="M0 0 C0.66 0.33 1.32 0.66 2 1 C-2.33271206 5.92533226 -5.46969546 8.80055631 -12 10 C-8.40945767 6.11024581 -4.26101118 3.10267805 0 0 Z " fill="#0A5492" transform="translate(545,477)"/>
<path d="M0 0 C1.65 0.33 3.3 0.66 5 1 C4.67 2.32 4.34 3.64 4 5 C2.35 4.67 0.7 4.34 -1 4 C-0.67 2.68 -0.34 1.36 0 0 Z " fill="#0A5191" transform="translate(542,364)"/>
<path d="M0 0 C1.65 0.33 3.3 0.66 5 1 C4.67 2.32 4.34 3.64 4 5 C2.35 4.67 0.7 4.34 -1 4 C-0.67 2.68 -0.34 1.36 0 0 Z " fill="#135795" transform="translate(478,364)"/>
<path d="M0 0 C0.66 0 1.32 0 2 0 C3.1875 2.25 3.1875 2.25 4 5 C2.625 7.3125 2.625 7.3125 1 9 C-1.09230769 4.56923077 -1.09230769 4.56923077 -0.625 1.6875 C-0.41875 1.130625 -0.2125 0.57375 0 0 Z " fill="#EEF6F8" transform="translate(518,753)"/>
<path d="M0 0 C0.99 0 1.98 0 3 0 C3 1.32 3 2.64 3 4 C4.32 4.33 5.64 4.66 7 5 C2.545 5.495 2.545 5.495 -2 6 C-1.34 4.02 -0.68 2.04 0 0 Z " fill="#1670A4" transform="translate(514,429)"/>
<path d="M0 0 C2.64 0.33 5.28 0.66 8 1 C7.67 1.66 7.34 2.32 7 3 C6.34 2.67 5.68 2.34 5 2 C5 2.66 5 3.32 5 4 C5.66 4.33 6.32 4.66 7 5 C6.67 5.66 6.34 6.32 6 7 C5.34 7 4.68 7 4 7 C3.34 6.01 2.68 5.02 2 4 C1.34 3.34 0.68 2.68 0 2 C0 1.34 0 0.68 0 0 Z " fill="#1A6FA5" transform="translate(530,426)"/>
<path d="M0 0 C4.37859255 0.50522222 6.81651224 3.17827222 10 6 C9.67 6.66 9.34 7.32 9 8 C8.236875 7.34 7.47375 6.68 6.6875 6 C4.15722061 3.70149462 4.15722061 3.70149462 1 4 C0.67 2.68 0.34 1.36 0 0 Z " fill="#0A5593" transform="translate(527,436)"/>
<path d="M0 0 C0.33 0 0.66 0 1 0 C1.49230769 6.4 1.49230769 6.4 -1 9.4375 C-1.99 10.2109375 -1.99 10.2109375 -3 11 C-3.99 10.67 -4.98 10.34 -6 10 C-5.38125 9.649375 -4.7625 9.29875 -4.125 8.9375 C-1.24445747 6.31112298 -0.84537162 3.73372463 0 0 Z " fill="#055794" transform="translate(500,470)"/>
<path d="M0 0 C1.2380014 3.57644848 0.74926071 6.33694766 0 10 C-0.66 10 -1.32 10 -2 10 C-2.6875 8.375 -2.6875 8.375 -3 6 C-1.5625 2.75 -1.5625 2.75 0 0 Z " fill="#EEF4F8" transform="translate(570,709)"/>
</svg>
